<mxfile host="app.diagrams.net" modified="2023-01-10T04:46:02.509Z" agent="5.0 (Windows NT 10.0; Win64; x64) AppleWebKit/537.36 (KHTML, like Gecko) Chrome/108.0.0.0 Safari/537.36" etag="I4ZTnVoRKJBLkGHb_EDx" version="20.8.3" type="github">
  <diagram id="E_tezuT1GnkoQCp6xDyw" name="Page-1">
    <mxGraphModel dx="1834" dy="2764" grid="1" gridSize="10" guides="1" tooltips="1" connect="0" arrows="1" fold="1" page="0" pageScale="1" pageWidth="850" pageHeight="1100" math="0" shadow="0">
      <root>
        <mxCell id="0" />
        <mxCell id="1" parent="0" />
        <mxCell id="i_11njDHbJU2cg-EoNkW-6" value="" style="whiteSpace=wrap;html=1;aspect=fixed;sketch=0;fillColor=none;" parent="1" vertex="1">
          <mxGeometry x="-320" y="-1680" width="520" height="520" as="geometry" />
        </mxCell>
        <mxCell id="cz_QGw_aT99e4y5Fwybq-22" value="" style="group;fillColor=#FFFFFF;" parent="1" vertex="1" connectable="0">
          <mxGeometry x="-280" y="-1480" width="120" height="120" as="geometry" />
        </mxCell>
        <mxCell id="cz_QGw_aT99e4y5Fwybq-14" value="" style="whiteSpace=wrap;html=1;aspect=fixed;fillColor=none;" parent="cz_QGw_aT99e4y5Fwybq-22" vertex="1">
          <mxGeometry width="120" height="120" as="geometry" />
        </mxCell>
        <mxCell id="cz_QGw_aT99e4y5Fwybq-13" value="User" style="shape=umlActor;verticalLabelPosition=bottom;verticalAlign=top;html=1;outlineConnect=0;" parent="cz_QGw_aT99e4y5Fwybq-22" vertex="1">
          <mxGeometry x="20" y="42" width="20" height="32" as="geometry" />
        </mxCell>
        <mxCell id="cz_QGw_aT99e4y5Fwybq-19" value="" style="sketch=0;aspect=fixed;pointerEvents=1;shadow=0;dashed=0;html=1;strokeColor=none;labelPosition=center;verticalLabelPosition=bottom;verticalAlign=top;align=center;fillColor=#00188D;shape=mxgraph.azure.computer" parent="cz_QGw_aT99e4y5Fwybq-22" vertex="1">
          <mxGeometry x="60" y="42" width="40" height="36" as="geometry" />
        </mxCell>
        <mxCell id="i_11njDHbJU2cg-EoNkW-23" style="edgeStyle=orthogonalEdgeStyle;rounded=0;orthogonalLoop=1;jettySize=auto;html=1;entryX=-0.025;entryY=0.5;entryDx=0;entryDy=0;entryPerimeter=0;fillColor=#d5e8d4;strokeColor=#82b366;strokeWidth=3;" parent="1" source="i_11njDHbJU2cg-EoNkW-1" target="i_11njDHbJU2cg-EoNkW-3" edge="1">
          <mxGeometry relative="1" as="geometry" />
        </mxCell>
        <mxCell id="i_11njDHbJU2cg-EoNkW-1" value="" style="strokeColor=#dddddd;shadow=1;strokeWidth=1;rounded=1;absoluteArcSize=1;arcSize=2;" parent="1" vertex="1">
          <mxGeometry x="280" y="-1452.5" width="120" height="65" as="geometry" />
        </mxCell>
        <mxCell id="i_11njDHbJU2cg-EoNkW-2" value="SG Gateway&lt;br&gt;Server" style="sketch=0;dashed=0;connectable=0;html=1;fillColor=#757575;strokeColor=none;shape=mxgraph.gcp2.gateway;part=1;labelPosition=right;verticalLabelPosition=middle;align=left;verticalAlign=middle;spacingLeft=5;fontSize=12;" parent="i_11njDHbJU2cg-EoNkW-1" vertex="1">
          <mxGeometry y="0.5" width="32" height="32" relative="1" as="geometry">
            <mxPoint x="5" y="-16" as="offset" />
          </mxGeometry>
        </mxCell>
        <mxCell id="i_11njDHbJU2cg-EoNkW-5" value="" style="group" parent="1" vertex="1" connectable="0">
          <mxGeometry x="520" y="-1490" width="80" height="110" as="geometry" />
        </mxCell>
        <mxCell id="i_11njDHbJU2cg-EoNkW-3" value="" style="shape=image;verticalLabelPosition=bottom;labelBackgroundColor=default;verticalAlign=top;aspect=fixed;imageAspect=0;image=data:image/jpeg,/9j/4AAQSkZJRgABAQAAAQABAAD/2wCEAAkGBxAQEBUPDxIQFRUQFRgVEBUXFREWFhUVFRUXFhUXFRMYHSgiGBolHRUWIT0hJSkrLi4uFx8zODMtOSgtLisBCgoKDg0OGhAQGi4lHyUuLS0tLS0tKy0tLS0tKy8tKy0tLS0wLS0tLS0tLS0tLS0tLS0tLS0tLS0tLS0tLS0tLf/AABEIAOAA4AMBIgACEQEDEQH/xAAcAAEAAwADAQEAAAAAAAAAAAAABQYHAwQIAgH/xABGEAABAwECBwoLBwQCAwAAAAABAAIDBAURBgcSITFzkRMzNUFRcbGywtEVIjI0QlJUYXKBwRdTYoKSk6EjdKKzFCUkQ+H/xAAbAQADAQEBAQEAAAAAAAAAAAAABAUDBgECB//EAD0RAAEDAQIHDgQGAwEAAAAAAAEAAgMEBREhMTM0cbHRBhITFTJBUVJTYXKBkaEUFsHhIiM1YoLwY5KyQv/aAAwDAQACEQMRAD8AvKIi/MFdRERCEREQhEREIRERCEREQhEREIRERCEREQhEREIRERCEREQhEREIRdaotOSCWAM/9smQ7muJXZUXa2/Uuu7JVGyM9i0n/krGoyTlKIiKctkRF1rSrGwQyTv8mJjnn35IvuHvOj5r1oLiAOdeLo4RYRU9CzKmJLneRG3O53y4h7yqBW4zatzv6MUDG/iD3u2ggDYqnadfLVTOmkJc+Q5hpu9VrRyDQrvYmLUvYH1cjmOcL8hgBLficePmXVtoKKijDqrC49OH0A1pEyyyH8GJcNBjOnB/8iCJ45Y8phu5nEg/wrVZmHlBNcC8xOPFILv8hmVbtLFi4Z6acH8Mgu/yHcqnaeC9bT55aeTJHpMGW35lugc9y8FJZdUPyjvT3G72KN/OzGL1ucEzHjKY5rhytII2hci88UtZLC7KikkjcONjnNP8aVaLMxiVsVwlyJh+IZLv1NzfwlZ9z0zck4HTgOzUvttY04wtfRUuzcZFJJcJmyRHjJGU3aM4HyVpoLUp6gXwTRScuS5pI5xpHzUeajnhyjCP70phsjXYiu2iIlloiIiEIiIhCIiIQiIiEIiIhCIiIQii7X36l13ZKlFF2vv1LruyVRsnPYtJ1FZT5JylERFOWqKtYxXkWdNdx5APNljuVlVZxj8HS87OsE3QZzH4gs5eQVmWBcQdaFOHC8boDdzAkdAW5rDsB+Eaf4+yVuKq7oj+ezw/VYUfJOlEX6vxc+m1HWlYFJUb9DG4n0rgHfqCqdqYsoXXmmmfGeJrxlt25j0q+om4K+oh5DzrHoVm6JjsYWLWjgLaEN53MSNHpROyv8Tcf4Veex8Ts4exw0eU1w5jmK9FLr1tBDMMmaNjx+JoKsQ7oZBglYCO7B7HAl3UgxtKxuzMNa+DNuu6NHFIMr+dPSrXZ2M+M3Cpge3ldGQ4fpcQf5XftPFzRy54jJCT6pymfNrvoQqraWLisjvMTo5R7jku/Se9M8JZVXyhvT/qfUYFnvZ48WFaNZmEtFU5oZ2En0T4jv0uuKlgV57rrOmgN08UjPiaQL/c7QV3bNwkrKfep5LvVccpuxyyl3PNcN9BJg79o2L6bVkYHBbuizCzcZ8rc1TAx49aM5Lv0nMdoVsszDagnuAlyHH0ZAWnmv0H5FR57LqocLmEjpGHUmGzxu51Y0XzHIHDKaQRxEEEbQvpIEXG4rZEREIRERCEREQhFF2vv1LruyVKKLtffqXXdkqjZOexaTqKynyTlKIiKctUVZxj8HS87OsFZlWcY/B0vOzrBN0Gcx+ILOXkHQs1wG4Rp/j7JW4LD8BuEaf4+yVuCqbocuzw/VYUnJOlERFATaIiIQiIiEIiIhC+ZI2uGS4BwOkEAjYVXLSwGs+bOItzceOMlv8Ah5P8KyotYp5YjfG4jQV8uY12MLMLSxZStvNNM1/I14yT+oZlU7Uwfq6a8zwSBo9IDKZz5QvA+a3tFXgt+oZlAHex9tiXdSsOLAvPlBac8ByoJpGfC4gbNBVoszGRWR5pxHMOUjIftbmOxaJaeDNFUXmWCO8+k0ZLto+qqlp4sWHPTTFv4XjKH6hnH8qhxnZ9TgnZce8X+4w+yy4GZmFp/ugqTs3GJRS5pcuE8eUL2/qberPR1sUzcqGRjxytcDtu0LGbSwLr4L74S9o9KMh4/T5W0KCYXxPyml7HjQRlMcPmM4Xj7EpZxvqeT3BG0IFS9puePovRi/Fj9g4fVUDg2dxmj4w67LHM/j+a1azLQiqYmzwuDmPGY8h4wRxEcihVtnTUnLwjpGJNRTNkxLtIiJFaoou19+pdd2SpRRdr79S67slUbJz2LSdRWU+ScpRERTlqirOMfg6XnZ1grMqzjH4Ol52dYJugzmPxBfEvIOhZpgNwjT/H2StxWH4DcI0/x9krcFU3Q5dnh+pS9JyTpRERQE2iIiEIiIhCIiIQiIo61LdpaXNPKxpOht97tgX0xj3u3rBee5eFwGEqSX4oyy8IKSpOTBMxzvVvudsKk16+NzDvXgg96AQRgX6vxEXwvUXTr7Lp6gXTRRvv5Wgnau4i9a4tN7Tce7AvCL8BWQYfYKNoi2aC/cpDklpz5D7rwL+MEA7F3MVNqFk76UnxZWl7RyPbdftHQrNjQH/Xu90kfWVCxen/ALGL83VK62CV1XZj+FwkA4dGL0SD2iOYb1bUi/V+LkVQRRdr79S67slSii7X36l13ZKo2TnsWk6isp8k5SiIinLVFWcY/B0vOzrBWZVnGNwdLzs64TdBnMfiCzl5BWaYDcI0/wAfZK3FYfgLwjT/AB9krcFU3Q5dnh+pWFHySiIigJtEREIREJWYYS4xJC8x0WS1jTduhF5fdxtGgD3pukopap29j5sZ5gs5JWxi9y09FjdnYwK6JwMjxK3ja4AZvc4aFq1h2tHWQNnivudmIOlrhpafeFrW2bNSN3z8I6QvI5myG4LgwptQ0lJLUC7KaAGA+u4hrdl9/wAlhM8z5HF8ji5zje5xN5J51sGM/g5/xx9ZY4ug3PRtEDn3YSfYcyUqze4Bfcb3NIc0ua5pvaQSCDygjQVt+Blruq6OOV/li9kh5XNzE/PMVhq1zFV5ida76L7t+NrqcPOMEe6+aQ3PuVyREXGKkiIiEKp4z+DnayPrhUHF7wjD+bqlX7Ghwc7WR9cKg4veEYfzdUrqrN/TJP5akhNlx5LakRFyqfRRdr79S67slSii7X36l13ZKo2TnsWk6isp8k5SiIinLVF16+jjnifDK3KZIMlwzjN7iNB4712EXoJabxjXhF6rdgYFUtHLu8Zle/OGF5acgHTkhrRnuzXm8qyJci0mqJJnb6R15XjWBowBF1LStOCmZuk8jWN4rznPMONdu/jWBYQWzJWzuneTcSdybxNZ6IA5btPvTtmWf8Y83m5ox7FlPNwY7ytcpMNrPkdkNnAJ0ZTXNB/MQrA0g5xcQdB5V5yWmYqbYe9slJI4uEYD4r85a0m5zQeS/P8AMqhaVisgiMsJODGDrWUNSXG5ytuFkxZQ1Lmm4iF9x5L2kZvfnWDLdcMeD6nUu6FhSb3O5F+kags6vlBFpmKGQ7nO3iD2kc5Bv6Fma0vFB5NR8TOgp62cyf5a1lT5QKYxn8HP1kfWWOrYsZ3Bz/jj6yx1L7n81PiK0q8oi1vFV5ida76LJFreKrzE6130X3b2aeYXlLlFckRFxKpIiIhCqeM/g52sj64VBxe8Iw/m6pV+xn8HO1kfXCoOL3hGH83VK6qzP0yT+WpITZceS2pERcqn0UXa+/Uuu7JUoou19+pdd2SqNk57FpOorKfJOUoiIpy1RZxh/hjIyV1JSuLSzNNIPKyiL8lp4rrxn+S0def7dcTV1BPtE3+1yt2FTMmmJkF+9GLvStU8taLudccdpVDXZbZpg71t0ff8zfnWn4vsLH1d9PUEGVgymPzDLaNN49YLJlZMXbiLRiu48oHmyV0dp0sctO4uGEC8G7CLknA8hwWzVHkO+E9BXnOPyRzBejKjyHfCehec49A5lK3N8mXy1JmsxtX0rvin87k1R6QqSrrim87k1R6QrFp5pJoS0OUatAwy4PqdS/oWErdcMuD6nUv6FhSmbnMi/T9FtWcoaEWl4oPJqPiZ0FZotJxQeTUc7Ogp22cyf5a1lT5QKaxncHP+OPrLHVsWM7g5/wAcfWWOpfc/mp8RWlXlEWt4qvMTrXfRZItbxVeYnWu+i+7ezTzC8pcp5K5IiLiVSRERCFU8Z/BztZH1wqDi94Rh/N1Sr9jP4OdrI+uFQcXvCMP5uqV1Vmfpkn8tSQmy48ltSIi5VPoou19+pdd2SpRRdr79S67slUbJz2LSdRWU+ScpRfq/F+qatV+Lz9bfndR/czf7XL0CvP1t+d1H9xN/tcuk3O5WTQEnWckaV0lYsXvCMP5uqVXlY8XvCMP5uqV0dZm8nhOpJx8saVs1R5DvhPQvOcWgcy9GVHkO+E9C85xaBzKFub5MnlqTVZ/5X0rtim87k1R6QqSrtim87k1R6Qq9qZpJoS8OUbpV/wAMuD6nUv6FhS3XDPg+p1L+hZZgjgpLXPyjeyFp8d/L+FnKffxKRYUzIaaR8huAP0TFU0ueAOhdTBvB+aukyIhc1t26SEeK0fU+5bLYNiQ0UQihHve4+U93K4/TQF2LNs+KmjEMLA1rdAHGeMk8Z967Sl2jaj6s71uBnR9T3raGARi/nVUxncHP+OPrLHVsWM7g5/xx9ZY6r25/NT4ilqvKItbxVeYnWu+iyRa3iq8xOtd9F929mnmF5S5TyVyREXEqkiIiEKp40ODnayPrhUHF7wjD+bqla7a9mRVURhnBLCQSASDe03jOFG2ZgfRU0rZoWOD2X3EucRnzHMrdHaMMNG+B1++N+jClZIXGQO0KfREURNIou19+pdd2SpRRdr79S67slUbJz2LSdRWU+ScpRERTlqiwHCKIsrKhrhcRPLsMjiD8wQfmt+VLw2wK/wCW7/kU5DZbrntOZsgAzG/icOVWLFrI6ec8IbgRj6EvUxue38PMslVmxcxF1ox3eiHOPMG//Vxx4D2iXZO4EfiLm5O1aPgXgo2ga5z3B80mZzh5LWjOGt+ek8av2laMDadzWuBLhcAClIYnFwJFysNR5DvhPQvOcWgcy9G1HkO+E9C84x6BzJHc3yZPLUtazmX2rtim87k1R6QqStQxa4NTQX1c3i7o3JZHd41xN+U7k5lTteVjKV4cbrxcNKXp2kyC5XeupGTROhkF7JBkvF914OkXr7jZHCzJaGsZGOK4NaB0JPM2NjpJHBrWC9ziQAANJJWO4bYaPryaemLmUwNznaHS8/I33Lk6GimqzvG4Gg4TzD7qjNKIxecaubsZtnCbcr5i2/J3YMG5X6NOVlXe+5XFjgQCDeCLweIgrzbOwCMgaAMy37BM/wDX0n9tD/ranLYs6Gkax0d+EkG89yxppnSEhyisZ/Bz/jj6yxxbhhrZctXRughDS8uYRebhc115zrOvs7tH1Yv3GqhYlVDFTFr3gG841nVMc5+AKqrW8VXmJ1rvoqd9ndo+rF+41aBgJY81HSmKcNDstzsxDhcbrs/yX1bVVBJS71jwTeMS8p2Oa+8hWNERciqCIiBCFVLew/oqOY0792ke3fNza0hnucS4Z/cL1YbKtOGqibPTvD2P0EcXKHDiI5FgNpuLqupJzn/kSD5B5uXawdt+ezpd1h8aNx/rRE+K4co5D711UtgsMAMR/HdfhxHZ3e6ntqyHfixLfkUfYVsw1sIngde0+UD5TTxtcOIqQXLvY5ji1wuIxhPgg4Qii7X36l13ZKlFF2vv1LruyU/ZOexaTqKynyTlKIiKctkREQhEREIRYrhbgrLSTnc2OdFI7+iWgm7KOaM3aDnuHKtqQJ+z699G8uaLwcYWUsQkACouBWA7YLqirAdLpZHmLY/e7ld/AV0rauOGN0srmsYwXuccwAXMsVxj2xLU1slM5xENK4NawaHOuzudy6diYgZNalT+Y7AMJ7h0AefOvhzmwswBcWGWF0tpPMceUylYfFboLz6z+5QAAGYZl+BfS7OGCOFgjjFwCnOcXG8rhqvIdzLf8EmnwfSf20P+pqwGp8h3MvmGJuS3MNA4hyJK0bO+Ma1u+uuN+K9fcMvBm+5elck8iZJ5F5t3Jvqt2BNyb6rdgUr5bHa+33THxv7fdeksk8iZJ5F5t3Jvqt2BNyb6rdgR8t/5fb7o+N/b7r0lknkTJPIvNu5N9VuwJuTfVbsC8+W/8vt90fG/t916SyTyIGnkXm3cW+q3YE3Fvqt2Bejc2O19vuj439q7Ff51U/3EvXK4l1qL0viK7S6VrbmgJILtWJa89BMJ6Y62PPkyN5COI+/iW24N4QQV8ImgdnGaRhuymO5CPqsHXLZ1py0UzaqB1zm5nt4ntJF7XDkU20rMZVt3wwP5j09xW0M5j0L0Sou1t+pdd2SpGCTKY13rNB2i/wCqjrX36l13ZK5WyQRWxjvOop6fJEqUREU5boiIhCIiIQiIiEIspxj4JSsmfaNOC9knjVDPSYQLspvK03X+7o1ZCL8xTdFWPpJOEZoI6Qs5YxILivN8bw4XjOvpXrDvAMxF1ZQN8XO6aAcXGXRjk93FxciocUgcLwu7pauOqj4SM6RzjSpT2GM3FfNV5DuZWWzsB6+WGOVkbC2SNr2/1Ixe1zQRmvzZiFWaryHcy37BPg+k/tof9TUla1fJSMY5gGE3YdC1gibI43rLvs/tL7qP92PvT7P7S+6j/dj71syKJ8wVPVb77U18IzpKxn7P7S+6j/dj70+z+0vuo/3Y+9bMiPmCp6rffaj4RnSVjP2f2l91H+7H3p9n9pfdR/ux962ZEfMFT1W++1HwjOkrGfs/tL7qP92PvX79n1pfdR/ux962VF58w1PVb77UfCM6SvNrYHRvkjeLnMkc1wvvzg3HOuVc1pj/AMup18nWK65N2crsI3b5gd0gFTyLihUxgrgxNaUoABbTsP8AVkN+e70Wcp6FzYH4Jy2k/LdlMpmnx3+lJdpazv4ltdFRxwRtihY1jGC5rRoA+qi2razacGKI3v8A+fv3eqYgp9/hdi1rkjYGtDRoaABzAXKMtffqXXdkqVUXa+/Uuu7JXO2Tnsek6inKjJFSiIinLZEREIRERCEREQhEREIRZth7gGSXVtAzx9M0I0PHG5g9bju4+fTpKJmlq5KWThIzpHMdP9wLOSNr23FeaJpwWEeloyeO/kuXoTBmFzKKmY8EOZTxNcDpBEbQQfmvo2FSGX/kGng3TTl5Ivv5edSKftS021jWta0i7CsoIDGSSb0REUdMoiIhCIiIQiIiELz3hEzcq6pbJ4p3ZzgDxgm8EbVN4E4GvtBwnqA5lM05hnBmI05P4fetar7FpahwfPBFI5vklzQSPmu6xgaA1oAAFwAFwAHEAuhlt5xgDIm3OuAJ2f0JNtL+K8m8Y18U1OyJjY42ta1gAa1ouAA0ABcqIufJJwlNgXIou19+pdd2SpRRdr79S67slULJz2LSdRWc+ScpRF17Ymlp35Ap5pfxNybv5XT8Jzex1G2PvRxRW9kfVu1efERdZSiKL8Jzex1G2PvTwnN7HUbY+9HFNb2R9RtRw8XWUoii/Cc3sdRtj708Jzex1G2PvRxTW9kfUbUcPF1lKIovwnN7HUbY+9PCc3sdRtj70cU1vZH1G1HDxdZSiKL8Jzex1G2PvTwnN7HUbY+9HFNb2R9RtRw8XWUoii/Cc3sdRtj708Jzex1G2PvRxTW9kfUbUcPF1lKIovwnN7HUbY+9PCc3sdRtj70cU1vZH1G1HDxdZSiKL8Jzex1G2PvTwnN7HUbY+9HFNb2R9RtRw8XWUoii/Cc3sdRtj708Jzex1G2PvRxTW9kfUbUcPF1lKIovwnN7HUbY+9PCc3sdRtj70cU1vZH1G1HDxdZSiKL8Jzex1G2PvTwnN7HUbY+9HFNb2R9RtRw8XWUoii/Cc3sdRtj708Jzex1G2PvRxTW9kfUbUcPF1lKIovwnN7HUbY+9PCc3sdRtj70cU1vZH1G1HDxdZSii7X36l13ZKeE5vY6jbH3riLZ6meC6nljEUmU4uybrrrrsyds2zaqKqje+MgAm84Og96zmmjMZAK//2Q==;imageBorder=default;sketch=0;imageBackground=none;" parent="i_11njDHbJU2cg-EoNkW-5" vertex="1">
          <mxGeometry y="30" width="80" height="80" as="geometry" />
        </mxCell>
        <mxCell id="i_11njDHbJU2cg-EoNkW-4" value="Power BI" style="text;html=1;align=center;verticalAlign=middle;resizable=0;points=[];autosize=1;strokeColor=none;fillColor=none;" parent="i_11njDHbJU2cg-EoNkW-5" vertex="1">
          <mxGeometry x="5" width="70" height="30" as="geometry" />
        </mxCell>
        <mxCell id="i_11njDHbJU2cg-EoNkW-7" value="PCLA" style="text;html=1;align=center;verticalAlign=middle;resizable=0;points=[];autosize=1;strokeColor=none;fillColor=none;" parent="1" vertex="1">
          <mxGeometry x="-320" y="-1680" width="50" height="30" as="geometry" />
        </mxCell>
        <mxCell id="i_11njDHbJU2cg-EoNkW-11" value="" style="group;fontStyle=1" parent="1" vertex="1" connectable="0">
          <mxGeometry x="-40" y="-1320" width="120" height="120" as="geometry" />
        </mxCell>
        <mxCell id="i_11njDHbJU2cg-EoNkW-8" value="" style="whiteSpace=wrap;html=1;aspect=fixed;sketch=0;fillColor=none;" parent="i_11njDHbJU2cg-EoNkW-11" vertex="1">
          <mxGeometry width="120" height="120" as="geometry" />
        </mxCell>
        <mxCell id="i_11njDHbJU2cg-EoNkW-9" value="" style="verticalLabelPosition=bottom;html=1;verticalAlign=top;align=center;strokeColor=none;fillColor=#00BEF2;shape=mxgraph.azure.sql_database_sql_azure;sketch=0;" parent="i_11njDHbJU2cg-EoNkW-11" vertex="1">
          <mxGeometry x="36.25" y="50" width="47.5" height="50" as="geometry" />
        </mxCell>
        <mxCell id="i_11njDHbJU2cg-EoNkW-10" value="Azure Database" style="text;html=1;align=center;verticalAlign=middle;resizable=0;points=[];autosize=1;strokeColor=none;fillColor=none;" parent="i_11njDHbJU2cg-EoNkW-11" vertex="1">
          <mxGeometry x="5" width="110" height="30" as="geometry" />
        </mxCell>
        <mxCell id="i_11njDHbJU2cg-EoNkW-19" value="" style="group;fillColor=default;" parent="1" vertex="1" connectable="0">
          <mxGeometry x="-40" y="-1670" width="120" height="150" as="geometry" />
        </mxCell>
        <mxCell id="i_11njDHbJU2cg-EoNkW-17" value="" style="group" parent="i_11njDHbJU2cg-EoNkW-19" vertex="1" connectable="0">
          <mxGeometry y="30" width="120" height="120" as="geometry" />
        </mxCell>
        <mxCell id="i_11njDHbJU2cg-EoNkW-13" value="" style="whiteSpace=wrap;html=1;aspect=fixed;sketch=0;fillColor=none;" parent="i_11njDHbJU2cg-EoNkW-17" vertex="1">
          <mxGeometry width="120" height="120" as="geometry" />
        </mxCell>
        <mxCell id="i_11njDHbJU2cg-EoNkW-16" value="" style="shape=image;verticalLabelPosition=bottom;labelBackgroundColor=default;verticalAlign=top;aspect=fixed;imageAspect=0;image=https://cdn.iconscout.com/icon/free/png-256/mongodb-5-1175140.png;" parent="i_11njDHbJU2cg-EoNkW-17" vertex="1">
          <mxGeometry width="120" height="120" as="geometry" />
        </mxCell>
        <mxCell id="i_11njDHbJU2cg-EoNkW-18" value="PRUForce DB" style="text;html=1;align=center;verticalAlign=middle;resizable=0;points=[];autosize=1;strokeColor=none;fillColor=none;" parent="i_11njDHbJU2cg-EoNkW-19" vertex="1">
          <mxGeometry x="10" width="100" height="30" as="geometry" />
        </mxCell>
        <mxCell id="i_11njDHbJU2cg-EoNkW-21" style="edgeStyle=orthogonalEdgeStyle;rounded=0;orthogonalLoop=1;jettySize=auto;html=1;fillColor=#d5e8d4;strokeColor=#82b366;strokeWidth=3;" parent="1" source="i_11njDHbJU2cg-EoNkW-8" target="i_11njDHbJU2cg-EoNkW-1" edge="1">
          <mxGeometry relative="1" as="geometry" />
        </mxCell>
        <mxCell id="i_11njDHbJU2cg-EoNkW-25" style="edgeStyle=orthogonalEdgeStyle;rounded=0;orthogonalLoop=1;jettySize=auto;html=1;fillColor=#f8cecc;strokeColor=#b85450;strokeWidth=3;" parent="1" source="i_11njDHbJU2cg-EoNkW-16" target="i_11njDHbJU2cg-EoNkW-1" edge="1">
          <mxGeometry relative="1" as="geometry" />
        </mxCell>
        <mxCell id="i_11njDHbJU2cg-EoNkW-26" style="edgeStyle=orthogonalEdgeStyle;rounded=0;orthogonalLoop=1;jettySize=auto;html=1;entryX=0.5;entryY=0;entryDx=0;entryDy=0;entryPerimeter=0;fillColor=#d5e8d4;strokeColor=#82b366;strokeWidth=3;" parent="1" source="cz_QGw_aT99e4y5Fwybq-14" target="i_11njDHbJU2cg-EoNkW-10" edge="1">
          <mxGeometry relative="1" as="geometry" />
        </mxCell>
        <mxCell id="i_11njDHbJU2cg-EoNkW-27" style="edgeStyle=orthogonalEdgeStyle;rounded=0;orthogonalLoop=1;jettySize=auto;html=1;strokeWidth=3;fillColor=#f8cecc;strokeColor=#b85450;" parent="1" source="cz_QGw_aT99e4y5Fwybq-14" target="i_11njDHbJU2cg-EoNkW-16" edge="1">
          <mxGeometry relative="1" as="geometry" />
        </mxCell>
      </root>
    </mxGraphModel>
  </diagram>
</mxfile>
